# xmcd
#
# Track frame offsets:
#	150
#	10767
#	23363
#	32671
#	44763
#	55684
#	66465
#	80162
#	92944
#	102792
#
# Disc length: 1532 seconds
#
# Revision: 0
# Processed by: cddbd v1.5.2PL0 Copyright (c) Steve Scherf et al.
# Submitted via: dBpowerAMP V4.0
#
DISCID=7b05fa0a
DTITLE=Porter Wagoner - Super Hits
DYEAR=2007
DGENRE=Country
TTITLE0=Eat, Drink, And Be Merry
TTITLE1=A Satisfied Mind
TTITLE2=Tryin' To Forget The Blues
TTITLE3=I've Enjoyed As Much Of This As I Can Stand
TTITLE4=I'll Go Down Swinging
TTITLE5=Green, Green Grass Of Home
TTITLE6=Skid Row Joe
TTITLE7=The Carroll County Accident
TTITLE8=What Ain't To Be, Just Might Happen
TTITLE9=The Rubber Room
EXTD=
EXTT0=
EXTT1=
EXTT2=
EXTT3=
EXTT4=
EXTT5=
EXTT6=
EXTT7=
EXTT8=
EXTT9=
PLAYORDER=
